/* XPM */
static char * camel2l_xpm[] = {
"74 59 91 1",
" 	c None",
".	c #B36A3E",
"+	c #906542",
"@	c #885A33",
"#	c #8B350C",
"$	c #925531",
"%	c #661E02",
"&	c #4E2A0E",
"*	c #461202",
"=	c #481605",
"-	c #9E6A3E",
";	c #613619",
">	c #8A4D2A",
",	c #7C3714",
"'	c #87411D",
")	c #8F461E",
"!	c #76523A",
"~	c #3A260A",
"{	c #8E4A26",
"]	c #9A5229",
"^	c #825330",
"/	c #5A2F13",
"(	c #6A2305",
"_	c #2A1202",
":	c #663216",
"<	c #713617",
"[	c #7B320E",
"}	c #A55327",
"|	c #B05E32",
"1	c #673618",
"2	c #724426",
"3	c #3E3216",
"4	c #6E4225",
"5	c #6F2C0C",
"6	c #A3714D",
"7	c #622E11",
"8	c #2A1E06",
"9	c #813F1C",
"0	c #543215",
"a	c #452A11",
"b	c #58371B",
"c	c #4E3E22",
"d	c #59210C",
"e	c #3A1A06",
"f	c #463317",
"g	c #62523E",
"h	c #6B3E21",
"i	c #926A52",
"j	c #9B633C",
"k	c #41361B",
"l	c #A6623A",
"m	c #925E36",
"n	c #763C1D",
"o	c #4E381C",
"p	c #603216",
"q	c #653F21",
"r	c #31230B",
"s	c #875535",
"t	c #7C4C2B",
"u	c #632308",
"v	c #945A36",
"w	c #3E280D",
"x	c #764626",
"y	c #58260D",
"z	c #623A1C",
"A	c #5E2E11",
"B	c #4B1A08",
"C	c #301303",
"D	c #6D3A1B",
"E	c #5E2A0E",
"F	c #562C10",
"G	c #3A1E06",
"H	c #4D260E",
"I	c #42210A",
"J	c #733212",
"K	c #6A2C0F",
"L	c #4B2009",
"M	c #9A4A22",
"N	c #512E12",
"O	c #764E2A",
"P	c #5A2A0F",
"Q	c #765F4E",
"R	c #561903",
"S	c #7A4221",
"T	c #7A5234",
"U	c #5A3E1E",
"V	c #724A26",
"W	c #64462E",
"X	c #AE794A",
"Y	c #864E2C",
"Z	c #C2663A",
"                                                                          ",
"                                                                          ",
"                                                                          ",
"                                                                          ",
"                                                                          ",
"                                                                          ",
"                                            @+.                           ",
"         2;                               -=*&%#$#                        ",
"       XO4/^                             ]{&~!%)',>                       ",
"     )2:1z1,|                         }[<':_*!*#(*%                       ",
" t@>M'<J7p15#                     144::&~*~&&~~3~~~2                      ",
" p&D<((u&yba09                   ,*&*_&&*8~~_8~33&7{6                     ",
" t4Dy%Akc~cfe,                   4&[&*&~~~ad~_83cc4))                     ",
"  s,(R7Bqrck~/j               i+4~%h4&7&77gcca~~:c4!>6                    ",
"   Z',ACkkock~nm              *&&&7hg!:ccccgc3a3ac:::1$l                  ",
"      pLdocobu7nt$          l:~:[s!24g~~~3ccr~333&qhp:%:)                 ",
"       1Poboz;&ypx6        .:*%~&:&__8~8888~3338w3444:%&%)v               ",
"       jY1q&4q/dBB6        }%*[&&Ac~~&c~8833c3~8*&74::[%%h$.              ",
"         42B44:/yED      !&8C_3~3~~~8888888888888~~33A&&hs9ul             ",
"         4;d2D;&&A:pF44:&~~&7c&&&~~~~8~~8~888888~3~3A:&~:$)&$             ",
"          /uJxzII0zHHG&*~**~~383~~~~~~~~~3333333333&&3p%&)':7)            ",
"           ,%K;Hyhz&&F944c&~*_~~~~33333a8~8383c333a~3&:8*!s4::6           ",
"           }5%(yLF:/&z&3&a~dc~&a&33acc~&~a3333333~38&8&~*h!{!)[           ",
"            M#[5=ByA&&~~888~a3a33~ac&7~a~~~~8~~~3~~~~y~&&:4!^i*'|         ",
"                Ku7p~&oc&~8___3~~~~~~~~~~~d~%~~~~~8~~~C&7&a:!l%%%         ",
"                 t@;aNr~8~~8~88~~~~B~8~*~*w*8*B88~*~~*_d43*_7!%**         ",
"                  jp=LA&y&d~8__*y8__*~~8B888888__8_88~cc3A&h4!p*_i        ",
"                   .95%%*~__8~d&da~~dc&&&&&&~~:3333~3~c~p3A:44a8_v        ",
"                       6+h**~c3w*8*&a&&a3&&~~~~~~8*8__3a&4c444&8_s        ",
"                          4~dA&&_8&8y&7&&&a&%~K7&&&&~~&&:c44c4a~*!        ",
"                          !&ph0oA37:opp:77%d%%**%&7777&&&oq4q3&a~h        ",
"                           &u&3c&3HHNxO4n%%%%%_*%74)4$pEFF4cc&wb%         ",
"                           P*%0cc8_Iz+   !)'99^.      :z&&occ3BNb         ",
"                          $u%7qQQNwF;                 n:/FPN3~dH&:        ",
"                          Oa33o  L*K%                 )'7p0Nr3&3Ip        ",
"                          ha0bo  RR(5(                 >*ha& 3~a_pjj      ",
"                         t;phT    Rd5(                 S:&wo 3rGeI:D2+    ",
"                         vp&s     %u75                 j^0ko  rrI=BdP}    ",
"                         +hu^     %uuK#                 SUok   ~zC*d=D    ",
"                         ^bN@      %u:'                 Vho3w   QF=L=P    ",
"                         V4tX      [5:{                 sNw~3    WIReH8   ",
"                         ;&z       9D&S                 vp~f3      nCB&   ",
"                        qAD        @2;p                 ^H&W       $IR0   ",
"                       +h;s         xp/                 ^&&@        NF;4  ",
"                       SDq-         S;p                 nHn          z0D  ",
"                       E:hX         ^1p                 u&<          ;No  ",
"                       &Fs           PP                 uE9          Npy  ",
"                      Vp;            p:                 FDY           FE; ",
"                      h&S            2&N               A&D            oAb ",
"                     ^1x              zN               F&:            qFN ",
"                    +2;m              S1t             spP             ^qb4",
"                    @7Aj              ;Fp             xF7              hEV",
"                    @&;               jF/             DA<              @ht",
"                    zz                 bN            DFp               6^ ",
"                                       &/            4Fz                  ",
"                                                                          ",
"                                                                          ",
"                                                                          ",
"                                                                          "};
