/* XPM */
static char * camel1l_xpm[] = {
"74 59 91 1",
" 	c None",
".	c #2A1202",
"+	c #7E360E",
"@	c #661E02",
"#	c #3A260A",
"$	c #692A0F",
"%	c #612207",
"&	c #825631",
"*	c #4E3E22",
"=	c #461202",
"-	c #52220A",
";	c #6E4626",
">	c #4E2A0E",
",	c #A56F46",
"'	c #6E4226",
")	c #62523E",
"!	c #B25E32",
"~	c #3E3216",
"{	c #86421E",
"]	c #A6623A",
"^	c #2E1602",
"/	c #7A320F",
"(	c #96663E",
"_	c #A65226",
":	c #693E22",
"<	c #5F3216",
"[	c #611D03",
"}	c #462A12",
"|	c #573519",
"1	c #84522E",
"2	c #461E0A",
"3	c #52563A",
"4	c #925632",
"5	c #76523A",
"6	c #461A06",
"7	c #522E12",
"8	c #60260C",
"9	c #4E3A1E",
"0	c #804C2B",
"a	c #762E0E",
"b	c #4E3618",
"c	c #AA7646",
"d	c #8F4B27",
"e	c #683819",
"f	c #95623B",
"g	c #572A13",
"h	c #9E6A3E",
"i	c #B47E4E",
"j	c #8E3A0E",
"k	c #613A21",
"l	c #571A05",
"m	c #663216",
"n	c #8F5E36",
"o	c #724829",
"p	c #8A6242",
"q	c #702608",
"r	c #602A10",
"s	c #564A32",
"t	c #4A3212",
"u	c #C2663A",
"v	c #8E461E",
"w	c #7A3A1E",
"x	c #AE6A3E",
"y	c #875636",
"z	c #72320E",
"A	c #8F6747",
"B	c #9A572A",
"C	c #9E4E26",
"D	c #59260E",
"E	c #763715",
"F	c #5A4226",
"G	c #764220",
"H	c #5F361A",
"I	c #794929",
"J	c #501E09",
"K	c #6F3616",
"L	c #915A36",
"M	c #4D1A08",
"N	c #4B1604",
"O	c #5E2E12",
"P	c #A27656",
"Q	c #59220D",
"R	c #8A5A36",
"S	c #B66A3E",
"T	c #622E12",
"U	c #89330B",
"V	c #422A12",
"W	c #926A52",
"X	c #672209",
"Y	c #2A1E06",
"Z	c #592E15",
"                                                                          ",
"                                                                          ",
"                                                                          ",
"                                                                          ",
"                                                                          ",
"                                                                          ",
"          i1I;                              RAS                           ",
"    yhC_v'me'e1                           hN=>@U4j                        ",
"   I''E{//mmk<US                         Bd>#5@vv/d                       ",
"   y''<[@@>@mK@_                      _/K{m.=5=U@=@                       ",
"    4EX=m#3Y*~#{                  e''mm>#=#>>##~###'                      ",
"     u{@m='Y**./                 +=>=.>>=Y##.Y#~~>Td,                     ",
"       v>.*~*~#mP                '>/>=>###}Q#.Y~**'vd                     ",
"        m=>*b*~#B             WA'#@:'>T>TT)**}##m*'5d,                    ",
"        'T}***T@T,            =>>>T:)5m****)*~}~}*mmmm4]                  ",
"        ,4m:>H:>>m4         ]m#m/y5'')###~**Y#~~~>:'<m@mv                 ",
"          'G>''>@>mP       Sm=@#>m>..Y#YYYY#~~~Y#~'''m@>@vL               ",
"          ''=''m>==P       _@=/>>O*##>*#YY~~*~#Y=>T'mm/@@:4x              ",
"           }@5m<mTT'     5>Y..~#~###YYYYYYYYYYYYY##~~O>>:y{@]             ",
"           /@{5>Y>mm'y'm>##>T*>>>####Y##Y#YYYYYY#~#~Om>#m4v>4             ",
"           v@@'>=>'>=.>=#==##~Y~#########~~~~~~~~~~>>~<@>v{mTv            ",
"           SU@@>T''>>T{''*>#=.####~~~~~}Y#Y~Y~*~~~}#~><Y=5y'mm,           ",
"            _U/@=>m<'&>~>}#Q*#>}>~~}**#>#}~~~~~~~#~Y>Y>#=:5v5v/           ",
"               '==Tm>~##YYY#}~}~~#}*>T#}####Y###~####D#>>m'5&W={!         ",
"                /O<<#>**>#Y...~###########Q#@#####Y###.>T>}m5]@@@         ",
"                 AG>~)Y#Y##Y#YY####M#Y#=#=#=Y=MYY#=##=.Q'~=.T5@==         ",
"                 ]'O==T>D>Q#Y..=DY..=##YMYYYYYY..Y.YY#**~T>:'5T=.W        ",
"                   S{a@@=#..Y#Q>Q}##Q*>>>>>>##m~~~~#~#*#<~Tm''}Y.L        ",
"                       PA:==#*~#=Y=>}}>}~>>######Y=Y..~}>'*'''>Y.y        ",
"                          '#QO|7.Y>YD>T>>>}>@#$T>>>>##>>m*''*'}#=5        ",
"                          oOH'stZ~Tm9mmmTT[%@@==@>TTTT>>>*:':~>##:        ",
"                          '%>>~2>~>>>m>}@@@@@@.=@T'v'4mTTm;**>#>@'        ",
"                          EN@>Fb9Y..>:py45v{{{1x      m'}>***~=Q#*        ",
"                         ]q[rkggk2#>oW                '{<>m*~#=}@OS       ",
"                         (H}~~6 ==NaM                 @z>G~*YY***.m       ",
"                         L|VHF   llU[                 _4='Y*~Y~#~.:       ",
"                         I|<'&   [%E%                   mmY3~Y~YM.T,P     ",
"                          IHDL   @8T@                   ]AH*~~~Y#.>{v     ",
"                          ymaR  @@Dz                      ''##~#<==>>A    ",
"                          1Z|R  qXDa                      yG.V* ).=@=_    ",
"                          og;i  U8$+                      ]4}Y5 WQ=>=:    ",
"                          GM<   wQlL                       ,8NP P~=M=m    ",
"                          'r;   &DM                         0ZX   {.>Y    ",
"                         ,:D1   0HZ                         ]M%]  4.=>    ",
"                         foZR   IMg                          N@/x  #@*    ",
"                         Gemp   1gJ                          @/5   mT'    ",
"                         8QJ0   =JJ                          /T,   ')G    ",
"                          JJ    r=l                          e/    >'b    ",
"                         n<r    ;HM                          mz    tmQ    ",
"                         0l0    yM                          f:@    Z%H    ",
"                         0g(    LQ4                         0%'    *Ok    ",
"                         I-f    1l:                         0<w   ,H7t    ",
"                        ,eM     hM<                         dXL    I:k    ",
"                        ,eZ     f-[                         L7R    5[;    ",
"                         1I      &I                         Ib1    Re&    ",
"                                                            ,>k    cH     ",
"                                                                          ",
"                                                                          ",
"                                                                          "};
