/* XPM */
static char * desert1_xpm[] = {
"363 44 91 1",
" 	c None",
".	c #FFA970",
"+	c #FEB77F",
"@	c #FDB07B",
"#	c #F7A066",
"$	c #F49B63",
"%	c #FBA96A",
"&	c #EF985F",
"*	c #E68C56",
"=	c #F5935F",
"-	c #FFAD73",
";	c #FCB16E",
">	c #DB8B56",
",	c #DB7D4A",
"'	c #CD7D4E",
")	c #C96C3E",
"!	c #E1935F",
"~	c #EA935E",
"{	c #EFA46A",
"]	c #F7AE75",
"^	c #F5A977",
"/	c #EF9D67",
"(	c #E28E59",
"_	c #F7A468",
":	c #CD794A",
"<	c #CF8B5A",
"[	c #F2A165",
"}	c #E89C67",
"|	c #EFA973",
"1	c #BD744A",
"2	c #BD6336",
"3	c #A96742",
"4	c #E69862",
"5	c #EF9C5E",
"6	c #FBAD6F",
"7	c #F6A96A",
"8	c #B96C41",
"9	c #C56C3F",
"0	c #BC8256",
"a	c #DA9867",
"b	c #A0522F",
"c	c #8C6348",
"d	c #89573A",
"e	c #98674A",
"f	c #815236",
"g	c #92421F",
"h	c #744227",
"i	c #7D5D41",
"j	c #64482E",
"k	c #594A2F",
"l	c #745E4B",
"m	c #5D4F33",
"n	c #8F745E",
"o	c #675F45",
"p	c #4D3F27",
"q	c #676447",
"r	c #FEBD85",
"s	c #FDB86F",
"t	c #FAB87C",
"u	c #F7AE66",
"v	c #FDC197",
"w	c #FFC886",
"x	c #FFC17F",
"y	c #C58252",
"z	c #5F3A20",
"A	c #513922",
"B	c #A57454",
"C	c #792F19",
"D	c #EFB891",
"E	c #FBCDB6",
"F	c #DAA474",
"G	c #F2B57E",
"H	c #DA8250",
"I	c #B0794E",
"J	c #6C5136",
"K	c #52462C",
"L	c #57442C",
"M	c #9C6C4A",
"N	c #675236",
"O	c #473821",
"P	c #A87E61",
"Q	c #625A3C",
"R	c #3D301C",
"S	c #70563B",
"T	c #7D694A",
"U	c #BA8B65",
"V	c #462419",
"W	c #C99367",
"X	c #FFD58E",
"Y	c #D8A97D",
"Z	c #DFB58B",
"                                                                                                                                                                                                                                                                                                            JJjkKpppk                                                      ",
"                                                                                                                                                                                                                                                                                                           JpkpNLKKKNkK                                                    ",
"                                                                                                                                                                                                                                                                                                       KkLkkkpLjNmkpmNKpp                                                  ",
"                                                                                                                                                                                                                                                                                                     kJpmLNppKkOJkAmkAOKKpOOj                                              ",
"                                                                                                                                                                                                                                                                                                   qqNmkKkkmLkNKLKJkpOpkpppLLk                                             ",
"                                                                                                                                                                                                                                                                                                kPQmqlkppOpOLmpKkOppRORApkkkOpOR                                           ",
"                                                                                                                                                                                                                                                                                             qQQNqQmqSSLpLKkkmLkNKpppOOOKKpmLppOR                                          ",
"                                                                                                                                                                                                                                                                                            qmNNlqQqmNNSkppOpOLmmLKKKpOOjpjkOppOROO                                        ",
"                                                                                                                                                                                                                                                                                          mQoqqSSmQoqqSSSLpLLLjNjNmkpppLLkpOOOORRROo                                       ",
"                                                                                                                                                                                                                                                                                          ocoSSSQocoSSSSmSJJJLJjJJkApkkkOpORROKRRRONe                                      ",
"                                                                                                                                                                                                                                                                                         ilTfiTqilTfiTidiSijJLjkLJLAOKpmLppOROppAmpkN                                      ",
"                                                                                                                                                                                                                                                                                         SicSiilSicSiiicfiJSLhjjJLjKAkpkOppOROOpKjpKOK                                     ",
"                                                                                                                                                                                                                                                                                        lifciellifcieidcdiJShKLJJNpKpJpmOOORRROOKkkpOLpO                                   ",
"                                                                                                                                                                                                                                                                                       T3n3dldT3n3de1dceidfJNmNkmmNmmkkppRKRRROOLpOppLKpLL                                 ",
"                                                                                                                                                                                                                                                                                       0UUIy3I0UUI33BcfccdfmhmfkfkmklpppRRRpRVRpLKpLOpjppLA                                ",
"                                                                                                                                                                                                                                                                                       Ia<IWW<F|aIbb3fefflhNpfmmlmllqmppORRRpVROpjppLpKkpjp                                ",
"                                                                                                                                                                                                                                                                               .#.+._FGxx~H5Ga4}[~H8b38BBPPPPnlfmpppmRpkkpRRRRROpKkpjpkpKKKp                               ",
"                                                                                                                                                                                                                                                                        %%;#...-#%%EvGtXx7**_#];]|a<H3I0UUPBncclfhmpmOpmppRRRVOOmLpKKKppmpOORh                             ",
"                                                                                                                                                                                                                                                                    +xxxww_%++sXXXXXEwwXX6***5}}}}aYa0U<FUUPBUPBicfffmmkppOppRRpkmLmpOORmKppAf                             ",
"                                                                                                                                                                                                                                                           ;;xxxwxxwwxwwwrrrwtttvwr||ttss;[~<G}}F}F|ZFFFFUUP0PPBecofJkmpppppkROpzKLmKppAROppKA                             ",
"                                                                                                                                                                                                                                                   ]tsxxs7;sxwx+@;+wxrwwwssswwwwXwwrs|55!}5~<xDGF|FuDFaPB3BB0bbbfbfhhchppOpmpROppOOpOppKARRAOO                             ",
"                                                                                                            @{7]@@^6]r]^]@+@+~%+._]                                                                                                         7ts]stsrrwwwr]7txws@;ssrrstwxstsrssxsxxxsu7*>>a>8a<<000U<U83bfb38bb33bibfcJSkmNkpORORORVRRAOOORROO                             ",
"                                                                                                     +@++s@t-u@rt;^+tr6^t+r@]#@+++++]D]!+v}xw}.*                                                                  |7G{||];{|]]||||7{|>~~/{|]]uG;]GtstsxsG|7t+x++swxrsuss;+u6s_7u7u$u%;;%~>!'3eee3e33333333800':::'y0ByeceeckAmARVVRRORROORRppKA                            ",
"                                                                                        ++;svt@rrr++++ww+t+;];t+t+@@r@t@+r+@_v+^[$]+6vv}v;'}]wx&&#^+@%%&/%@@6/v/#v.*#.vE|'<F|#.#=#&5x]5a{|sGx5%}|D|>E|]{##===_|}{{||^}>>!>~^w(~/${{{$>>!~${|^{|{u7||G||t7{||%.$.@+s6#.%6;;;u7;;s-%6%%sx;|}a0e3ee8B000e30<aYaa,>!~!<<UUBBnPPqplmOORRppppkpppRAOO                            ",
"                                                                                 t+r+xrr;6-+r;6t+x+++-t+++++6@t+r6]6@wt6@t+t+6++@_#_r___]%__6r]#[]r+][@@@]|]@__^++s%[;;;;__6@+$(*^+@s~[%ss;[[|]G/!!|v|{}[]]|{}GG]|||D|{aaaa}|'>}/$/]]H!4}[}/&r67_;s6;==[_%6;+r6.;rrs%s;.6s%667#%;s;%uss;u=*,,gb)8):22g22<>}[a':',:'''))9992gghzAOVVVVpzRpppRROOZ                           ",
"                                                                             w];]+wx+++t@---+-.@+@-;@%+s+6@-6@@t;66.6+t@6+@+t@@@%#_@+@-6%]-66t;u]-t;@|]]t@]@t]u6++s75%;s%7#^6+_~&_@+;~#66;67_]ut]7[]v[|{{|||$F/||//||{}}!4~F|>&[{}}/;[{_{/&(($$~&=#__ss;%$~~~~~~5766%#%7%#__u;;ussxwxu%%#&=**>H><:)8)H><:8><<5}}~!,')'':::)2bBichzORVmppORzpOkfUaZ                         ",
"                                                                         +++vwx+t@+wr%@+@;._--.6@+.---r+6%_;-.-@@.-.-r+]%-+@@@@^%____#-..6^.__7_66u]%%]]@@tt@@666s6;6[6;;6%%@+.##--@+&_;-_7u;u7tt]]{G$||[}/}[{{u{}4}^F}4a4~}{}^|{~44{^]]]{_/5&=[[&$__%6;%7#$$&*$$=~&$$=5#5[57%_=*5usx=[56#%%%>')22::'|7*'):::]]|/!>>,~>>>>>,:aUInifffhzzOOzORVzbfbUZw                      ",
"                                                                    +++vx+6+@w+@7;++x]6-@;-_.;-.@@-.@%+;.%%-;6.@@%.+-t6.%%;;;s@.^%^____[##_{[5$[#$##7___%@@t6-.%#;s;;_6ss%]^@@@#%-@-@_--.%t;6u_6;;^_}{|^]}5{7{u]7{/[{[}}}}}}}/{{[*!&{#{66%77%u%6%%77%[7%6%%%%%%_%[5##;6%u#$_#~!,,**5%*=[#6;%;4!'88'>!|{}<,>!>}}}[[[}~|}44*!>!FUa<UaUaibdfcffhCghCCCbb}                     ",
"                                                                .%.-.-++@..--w+;%s@tr;6%#$...;..%%@;.s-;;.6--%.-.@;%;+6;-;;..s;6%66^_7_#[####_%%%%.%6%_%.-.@@-.-%++6;_s;;-6%]]6_.]..@6-6;.;;-u%6;6;7[^G]t|[{%76;;7{__/}}}}{/}~$/&(!~[#766+u]6%6;%%77%#7%;%67__%7uu7[[77u7[&~*5&5[%s7755[%7%%|Xwr|~~}5>4}}[[{~>*}5|]]|][}~*(!>aFUaaaFZaaFFYZUyF{Z!0'''b                     ",
"                                                          .+@#.#--#.%..++-...xr%%.s@@@67_#__$&.6.%__#$7_%%#$$-.%u_###%_%%_%7u##___7__&&5$[_%7_uuuuu%6;_-;..@+..;.s6.6%6@6s6%%_^%_-%.-.6;.6--;.6;%-+-{^%^^__%66.%t667]||{||{{|~}/}*&$_;66%;%__7_%%_##u%%_s676u7_#$]u7}!~44}44~>!457{5}55u{7|7}wr7[}}}[,}${{]{4~~/{{_[_$#$~~>*>}Fa<0UU0FaaZDZF<3'::)8)2))                    ",
"                                                 ....##..+$#.#.%.%#.;..@;..@.+;.%-;s;s;.76_##[#$$##$[&=~&$$$&_$$##$[&$$&=[$$#5$5$$[5#*~~~&5[{$5/[5{[[$__6..%.@;-;@;6.;;-%s6666u%_$%%.%_###7#%%_%%7__$%^#_^%%_7%%_#_%7_|7]^^{{[^]t[[|%7%%7_#[$&5=5&555_%_##__7{[{5/}54~}|[[44~,<'<>>>>}5|{{{{}~~>,>>~}~[[~~/}}4$/$~~**~&[$&~*>G^F!><<<y0y>F4>0}]rD]]+G                      ",
"                                          #&*.#.#=##-$=#+@#=...;...-;....+;.;+;;.;;..s-;%]u777__#$$_#%66%%;%_[[#[#_#%;%%6-%6;[##%77_7#_#7_uu;77u7]77]77_$.6.7_#$#u_6%#6%%[#____77#7###$[$~$~~=5=5$5&~_$$$^#$5=5$555$_&7^]]]^/]+v+]|##&=[$555#%u__%5$5=5#55&$[~&|[>::H4}5{~H''}H,:'!}{!a}F|}/}]{*>,,,>//~>,~5#>(>**,,',~#]$4**vDG]|{G;F><aGDD|>                             ",
" >>,''),'>,>>>>,,,!~{>*~#]^~>]$&**=#+,,&//=*,==*(==$-==$=====__.6_#=&%..%__$$%_6%_%%%_[_#_7__&&5[{_77_7u66u7_7[[[_uu7tu6u%7su#_[#_u7u_u_7u];]66777-t@777[_[###[$=~=&=5=5$555$/5&/#[{__[##_%%%%6%665&[[}4~&[_66u65${77/[~&${{}]]^^]^]667665#___[7u7[7u7_u5$[_7/}5a!!aHa}{aaH>au7}{u{a>>!5}a>>>{|{{|||{}~a(a~|^~$#|///^*4~[$                                                 ",
",''::,<,,<>>>~!!!!~[_!~}[^|{*#[$&$/^%,*~&=**,#=====##~=~*&~&&.%_.##$=_[$$$5#&&&~=5=5#55$$$$5$*~~~&5[{555555&4*}445$[7[_[[{5554~55}45~}&5$&/[$/&&~~&57~&{____{_#_7%u%6;%%;[$#77[{77u7_7_{7_|uu_7_u7&///[/[[[{7{7{55$$|+^^^;@%^]^^^^]]]7u]u_[[{!}!44}5[{7{555}}|{}}}}}}~}44~a4}u|{}}}(<||su||||/}{/}{                                                                        ",
"1)223::1::'<,!>>,>>~~>!!}{}}!~~*4~~/[*~$/$$~({$$~5_-6#$_$[$$5%7%6;]7_5[[[5$$_%%%%;%%;5#_77_7%#_#_7uut_7u7|7uu7[uuuu;tuuuuuu7{7{{[_[{{[55[5[/[~[&5}[{|}[{777__{[__7u777u;7#[[#{|77__{[55[}{&44>4!~!4[_/////[$[(**(!4~&554~44*(5}~&4~$~4~~~4}}}!!44!!(!!~(a4}}4(!>>>~4a~>>>}}4a{|5|{}!>}                                                                                     ",
"33332338311181:90:1'0''''<<'':'::,<,'>!a}}4!>~~!4~~~~}[~&~}/[~}/{/$&~~~~~[#{57u7u7uu75555{7777{77766^6]_7^6ut{|u]]u{u[7uu67{5{/[}{/[[~5}4/~&}((~444&}[{7[[/}5~}}}!*>>!>>>aa4}~4!~44!(4&&5[/55(44/~4[^/=&/$/}/~~(((            44~~~~!&444                                                                                                                                  ",
"bb3bc33333333b333333333811338b2119132)911891919:11899::::)::')'::'::1:::::<><:':'<'''<<>>>!>>>>****~*~****((5':y><>:''<>!><':':':':::::<::':::::'::89HHy<H<yH>H*>>HH'H>(HHHHH}4!444~(445&{#|_**~~*>~$~&~$                                                                                                                                                                  ",
"bdbdb33ebebe3cb3bcbbb333e33333323333e3332333281)191131123131813118118111''1::18118::'8'y:<:<<'::'::,:,<:::,',1'''':'8:::'<::'81811811:::I::0'y<<I:81801:118192)99999:)99:2298,:9,9,99,9,,,>*****=**                                                                                                                                                                        ",
"fbcbcedc3bdbbdbeeecffce3cbd33338332bb333b33333811132b333232333281111181818138'0:0'10'38111'8'',::,:<:,<,,<::8)0<<<<01<008110'10':0:I10:1:8881::''':0:810'1118229)9)992999222999299))99),:,                                                                                                                                                                                 ",
"bcccbcbfbcffffbeb3bbg333ebbc383823cbb333bb3b3bb323bbb32b3bbb2bbb223232333b3bb323233233b333313)))')'))))'')))2b330833b08333331333ebe331B1B1313B33BB11B18333332,)),,999                                                                                                                                                                                                      ",
"fgfbfecfhhfficffjhkffdcflfffmcllfjlldlfllllflnolkfkppkkkkflkkmqlokzkfffffffhkkkkflllfcfffdffffhhzzhhfhhhfffffbbbgbgbbgggb                                                                                                                                                                                                                                                  ",
"                      hffhkhhllkfkffqkkkhmfkfmfflkffflflflfqckllfkAkfificifbfccclffcfifffbebf33c3ee3BcB33e1B833                                                                                                                                                                                                                                                            ",
"                                            fkfmofcicnciqlccnfccclfflcee3eeecBeBeedcbBe3e3e33C                                                                                                                                                                                                                                                                             ",
"                                                                                                                                                                                                                                                                                                                                                                           "};
