/* XPM */
static char * camel2_xpm[] = {
"74 59 91 1",
" 	c None",
".	c #B36A3E",
"+	c #906542",
"@	c #885A33",
"#	c #8B350C",
"$	c #925531",
"%	c #661E02",
"&	c #4E2A0E",
"*	c #461202",
"=	c #481605",
"-	c #9E6A3E",
";	c #613619",
">	c #8A4D2A",
",	c #7C3714",
"'	c #87411D",
")	c #8F461E",
"!	c #76523A",
"~	c #3A260A",
"{	c #8E4A26",
"]	c #9A5229",
"^	c #825330",
"/	c #5A2F13",
"(	c #6A2305",
"_	c #2A1202",
":	c #663216",
"<	c #713617",
"[	c #7B320E",
"}	c #A55327",
"|	c #B05E32",
"1	c #673618",
"2	c #724426",
"3	c #3E3216",
"4	c #6E4225",
"5	c #6F2C0C",
"6	c #A3714D",
"7	c #622E11",
"8	c #2A1E06",
"9	c #813F1C",
"0	c #543215",
"a	c #452A11",
"b	c #58371B",
"c	c #4E3E22",
"d	c #59210C",
"e	c #3A1A06",
"f	c #463317",
"g	c #62523E",
"h	c #6B3E21",
"i	c #926A52",
"j	c #9B633C",
"k	c #41361B",
"l	c #A6623A",
"m	c #925E36",
"n	c #763C1D",
"o	c #4E381C",
"p	c #603216",
"q	c #653F21",
"r	c #31230B",
"s	c #875535",
"t	c #7C4C2B",
"u	c #632308",
"v	c #945A36",
"w	c #3E280D",
"x	c #764626",
"y	c #58260D",
"z	c #623A1C",
"A	c #5E2E11",
"B	c #4B1A08",
"C	c #301303",
"D	c #6D3A1B",
"E	c #5E2A0E",
"F	c #562C10",
"G	c #3A1E06",
"H	c #4D260E",
"I	c #42210A",
"J	c #733212",
"K	c #6A2C0F",
"L	c #4B2009",
"M	c #9A4A22",
"N	c #512E12",
"O	c #764E2A",
"P	c #5A2A0F",
"Q	c #765F4E",
"R	c #561903",
"S	c #7A4221",
"T	c #7A5234",
"U	c #5A3E1E",
"V	c #724A26",
"W	c #64462E",
"X	c #AE794A",
"Y	c #864E2C",
"Z	c #C2663A",
"                                                                          ",
"                                                                          ",
"                                                                          ",
"                                                                          ",
"                                                                          ",
"                                                                          ",
"                           .+@                                            ",
"                        #$#%&*=-                               ;2         ",
"                       >,')%!~&{]                             ^/4OX       ",
"                       %*(#*!*_:'<[}                         |,1z1:2)     ",
"                      2~~~3~~&&~*~&::441                     #51p7J<'M>@t ",
"                     6{7&33~8_~~8*&&_*&*,                   90aby&u((<D&p ",
"                     ))4cc38_~da~~~&*&[&4                   ,efc~ckA%yD4t ",
"                    6>!4c:~~accg77&7&4h%~4+i               j/~kcrqB7R(,s  ",
"                  l$1:::ca3a3cgcccc:!gh7&&&*              mn~kcokkCA,'Z   ",
"                 ):%:phq&333~rcc3~~~g42!s[:~:l          $tn7ubocodLp      ",
"               v)%&%:4443w8333~8888~8__&:&~%*:.        6xpy&;zoboP1       ",
"              .$h%%[::47&*8~3c3388~c&~~cA&&[*%}        6BBd/q4&q1Yj       ",
"             lu9sh&&A33~~8888888888888~~~3~3_C8&!      DEy/:44B24         ",
"             $&)$:~&:A3~3~888888~8~~8~~~~&&&c7&~~&:44Fp:A&&;D2d;4         ",
"            )7:')&%p3&&3333333333~~~~~~~~~383~~**~*&GHHz0IIzxJu/          ",
"           6::4s!*8:&3~a333c3838~8a33333~~~~_*~&c449F&&zhyH;K%,           ",
"           [)!{!h*~&8&83~3333333a~&~cca33&a&~cd~a&3&z&/:FLy(%5}           ",
"         |'*i^!4:&&~y~~~~3~~~8~~~~a~7&ca~33a3a~888~~&&AyB=5[#M            ",
"         %%%l!:a&7&C~~~8~~~~~%~d~~~~~~~~~~~3___8~&co&~p7uK                ",
"         **%!7_*34d_*~~*~88B*8*w*~*~8~B~~~~88~8~~8~rNa;@t                 ",
"        i_*p!4h&A3cc~88_8__888888B8~~*__8y*__8~d&y&AL=pj                  ",
"        v_8a44:A3p~c~3~3333:~~&&&&&&cd~~ad&d~8__~*%%59.                   ",
"        s_8&444c4&a3__8*8~~~~~~&&3a&&a&*8*w3c~**h+6                       ",
"        !*~a4c44c:&&~~&&&&7K~%&a&&&7&y8&8_&&Ad~4                          ",
"        h~a&3q4qo&&&7777&%**%%d%77:ppo:73Ao0hp&!                          ",
"         %bw&cc4FFEp$4)47%*_%%%%%n4OxNHH3&c3&u&                           ",
"         bNB3cco&&z:      .^99')!   +zI_8cc0%*P                           ",
"        :&Hd~3NPF/:n                 ;FwNQQq7%u$                          ",
"        pI3&3rN0p7')                 %K*L  o33aO                          ",
"      jjp_a~3 &ah*>                 (5(RR  ob0ah                          ",
"    +2D:IeGr3 ow&:S                 (5dR    Thp;t                         ",
"    }PdB=Irr  ok0^j                 57u%     s&pv                         ",
"    D=d*Cz~   koUS                 #Kuu%     ^uh+                         ",
"    P=L=FQ   w3ohV                 ':u%      @Nb^                         ",
"   8HeRIW    3~wNs                 {:5[      Xt4V                         ",
"   &BCn      3f~pv                 S&D9       z&;                         ",
"   0RI$       W&H^                 p;2@        DAq                        ",
"  4;FN        @&&^                 /px         s;h+                       ",
"  D0z          nHn                 p;S         -qDS                       ",
"  oN;          <&u                 p1^         Xh:E                       ",
"  ypN          9Eu                 PP           sF&                       ",
" ;EF           YDF                 :p            ;pV                      ",
" bAo            D&A               N&2            S&h                      ",
" NFq            :&F               Nz              x1^                     ",
"4bq^             Pps             t1S              m;2+                    ",
"VEh              7Fx             pF;              jA7@                    ",
"th@              <AD             /Fj               ;&@                    ",
" ^6               pFD            Nb                 zz                    ",
"                  zF4            /&                                       ",
"                                                                          ",
"                                                                          ",
"                                                                          ",
"                                                                          "};
