/* XPM */
static char * cameltp_xpm[] = {
"74 59 91 1",
" 	c None",
".	c #2A1202",
"+	c #723412",
"@	c #461202",
"#	c #4E3E22",
"$	c #8E6646",
"%	c #42220A",
"&	c #52220E",
"*	c #724627",
"=	c #2A1E06",
"-	c #524126",
";	c #542E12",
">	c #3E3216",
",	c #9A522A",
"'	c #661E02",
")	c #855B3B",
"!	c #5D2E12",
"~	c #301E06",
"{	c #5A3A1E",
"]	c #593F23",
"^	c #926A52",
"/	c #8C441E",
"(	c #62523E",
"_	c #5C3216",
":	c #76523A",
"<	c #42361A",
"[	c #5E4022",
"}	c #642207",
"|	c #623216",
"1	c #B37E4C",
"2	c #4D220A",
"3	c #461E06",
"4	c #8A320A",
"5	c #6B3E21",
"6	c #96623A",
"7	c #B66E3C",
"8	c #86421E",
"9	c #8E4A26",
"0	c #6D462A",
"a	c #525438",
"b	c #53290E",
"c	c #7A3E1C",
"d	c #533A1E",
"e	c #4C260B",
"f	c #622E11",
"g	c #6B3A1D",
"h	c #601E02",
"i	c #6E4226",
"j	c #835532",
"k	c #6E3415",
"l	c #423216",
"m	c #A16D42",
"n	c #5E2810",
"o	c #774625",
"p	c #925A36",
"q	c #35260B",
"r	c #905632",
"s	c #652A0E",
"t	c #553317",
"u	c #A77343",
"v	c #643619",
"w	c #4C2E14",
"x	c #4A1A08",
"y	c #7B3A1B",
"z	c #5A280E",
"A	c #9A623E",
"B	c #7A4B2C",
"C	c #5D361A",
"D	c #3A260A",
"E	c #916138",
"F	c #724E34",
"G	c #4E2A0E",
"H	c #A27656",
"I	c #6A2E10",
"J	c #7A320E",
"K	c #624626",
"L	c #633A1D",
"M	c #6A361A",
"N	c #452A11",
"O	c #653E22",
"P	c #6E4A3A",
"Q	c #663216",
"R	c #491603",
"S	c #4D3719",
"T	c #4F1E08",
"U	c #A35126",
"V	c #A66139",
"W	c #8E3A0E",
"X	c #5B220D",
"Y	c #824626",
"Z	c #864A26",
"                                                                          ",
"                                                                          ",
"                                                                          ",
"                                                                          ",
"                                                                          ",
"                                                                          ",
"                                                                          ",
"                                $                 B1                      ",
"                              W4GRm           vJvY5Q/Uj                   ",
"                              !8:G9          kvsfkCQJgi                   ",
"                            !eXI:.QkU        }fGw}fb'fi                   ",
"                           ffsd-DGDDQi       !S#ae#aQ}r                   ",
"                          fff!]>=DD@G@@      J.#5.#iv8                    ",
"                          ff!;#>.XNDGbG      Qq##D##G                     ",
"                          ff;d#DN#(ffi}i^    [>SGlSGQ                     ",
"                          |!~wlq>(##Q(fG@  Z5f+#ef#Ni                     ",
"                         f5b~l>lq##DDi:JDQQJvQgG!OGQm                     ",
"                        Df>DDNq=>q==D.GG'@o'|G5bGiGi                      ",
"                        h|>G|ON=>>l=#D#GJ@,GxQi@vi@i                      ",
"                       F3>tG!>D=======D>>.~i!_gf_Q'                       ",
"                       v%NtqQ>>=====DDDGG#GwGbQGG:'                       ",
"                       fG~v'>G>>>>>DDDDD=>D@R.GGGi'                       ",
"                      GbG_F~GD>>>>==>>>DD.D#i!wiG'4                       ",
"                      ntz05D==D>>>>DD#>GGDXN>jQGhJU                       ",
"                     Q!![5QGzDDDDDDDDGN>N>D=D>Q@i                         ",
"                     |f![NGGDDDDDDXqDDDDl..D#G_!G                         ",
"                     fns!@>X@DD=@@DDDDDD===DD(G$                          ",
"                     f!f5G!#D==.===xD@.z..DGG@fV                          ",
"                     fffgf>DDD>>DGGGGXqXXD.D'J7                           ",
"                     ff!5#iG.==DDDG>GN@@>dTLH                             ",
"                    fffzdi#GNGGfDGNGfzb.Gb!                               ",
"                    fff;OO#bffb@hX'fQ#ff(Mss                              ",
"                    f!ne_0QG!ffT''h'GGGG>eXX                              ",
"                    eXN@}#GGbffcc8/Bb%.#dGb;                              ",
"                   V}2h2GQGcff!    f*DtPF5L;A                             ",
"                   Qt[#5GViJ        @Rgg ><Gj                             ",
"                   iS<>lG$ir        'i55 #-S*                             ",
"                  rvbw3#NrQ         }iii $Ei5                             ",
"                  QGt{D$vg)         'iii  Gt*A                            ",
"                  ezbt b;Qf         4hii  i5BE                            ",
"                 T_5_  iLIf         4iii  ;O0j                            ",
"                 !5:5  0Lf          ys5i  iiiB                            ",
"                 gB)   HgM          75Q5  iiii                            ",
"                2MQk   M5g          0gff  i5LLO                           ",
"                !gQc   i5|          Gb!    CiLC                           ",
"                _;rC   'Gt5         G5M     u)_i                          ",
"                GGGG   GuGi         GGb     EF;i                          ",
"                ;tbQ   Q1Gi         Gi0     ;bvt                          ",
"               CCC_L   GGGi         Gii     t_iE                          ",
"               f!__    kGiG         GGG     iiiE                          ",
"               v|!     'i51         Gjj      vC*                          ",
"               C{5     GGip         mii      GGL*                         ",
"              Ot;b     yBej         ibb       GbI                         ",
"              5_LC     p9bi         Lum       G;b                         ",
"              LCL_     iiGs         h11        jE                         ",
"                       ii G         FB                                    ",
"                       Lu m                                               ",
"                                                                          ",
"                                                                          "};
