/* XPM */
static char * camel1_xpm[] = {
"74 59 91 1",
" 	c None",
".	c #2A1202",
"+	c #7E360E",
"@	c #661E02",
"#	c #3A260A",
"$	c #692A0F",
"%	c #612207",
"&	c #825631",
"*	c #4E3E22",
"=	c #461202",
"-	c #52220A",
";	c #6E4626",
">	c #4E2A0E",
",	c #A56F46",
"'	c #6E4226",
")	c #62523E",
"!	c #B25E32",
"~	c #3E3216",
"{	c #86421E",
"]	c #A6623A",
"^	c #2E1602",
"/	c #7A320F",
"(	c #96663E",
"_	c #A65226",
":	c #693E22",
"<	c #5F3216",
"[	c #611D03",
"}	c #462A12",
"|	c #573519",
"1	c #84522E",
"2	c #461E0A",
"3	c #52563A",
"4	c #925632",
"5	c #76523A",
"6	c #461A06",
"7	c #522E12",
"8	c #60260C",
"9	c #4E3A1E",
"0	c #804C2B",
"a	c #762E0E",
"b	c #4E3618",
"c	c #AA7646",
"d	c #8F4B27",
"e	c #683819",
"f	c #95623B",
"g	c #572A13",
"h	c #9E6A3E",
"i	c #B47E4E",
"j	c #8E3A0E",
"k	c #613A21",
"l	c #571A05",
"m	c #663216",
"n	c #8F5E36",
"o	c #724829",
"p	c #8A6242",
"q	c #702608",
"r	c #602A10",
"s	c #564A32",
"t	c #4A3212",
"u	c #C2663A",
"v	c #8E461E",
"w	c #7A3A1E",
"x	c #AE6A3E",
"y	c #875636",
"z	c #72320E",
"A	c #8F6747",
"B	c #9A572A",
"C	c #9E4E26",
"D	c #59260E",
"E	c #763715",
"F	c #5A4226",
"G	c #764220",
"H	c #5F361A",
"I	c #794929",
"J	c #501E09",
"K	c #6F3616",
"L	c #915A36",
"M	c #4D1A08",
"N	c #4B1604",
"O	c #5E2E12",
"P	c #A27656",
"Q	c #59220D",
"R	c #8A5A36",
"S	c #B66A3E",
"T	c #622E12",
"U	c #89330B",
"V	c #422A12",
"W	c #926A52",
"X	c #672209",
"Y	c #2A1E06",
"Z	c #592E15",
"                                                                          ",
"                                                                          ",
"                                                                          ",
"                                                                          ",
"                                                                          ",
"                                                                          ",
"                           SAR                              ;I1i          ",
"                        j4U@>=Nh                           1e'em'v_Chy    ",
"                       d/vv@5#>dB                         SU<kmm//{E''I   ",
"                       @=@U=5=.m{K/_                      _@Km@>@@[<''y   ",
"                      '###~##>>#=#>mm''e                  {#~*Y3#m=XE4    ",
"                     ,dT>~~#Y.##Y=>>.=>=+                 /.**Y'=m@{u     ",
"                     dv'**~Y.#Q}###>=>/>'                Pm#~*~*.>v       ",
"                    ,d5'*m##}**)TT>T>':@#'AW             B#~*b*>=m        ",
"                  ]4mmmm*}~}~*)****m5):T>>>=            ,T@T***}T'        ",
"                 vm@m<':>~~~#Y**~###)''5y/m#m]         4m>>:H>:m4,        ",
"               Lv@>@m'''~#Y~~~#YYYY#Y..>m>#@=mS       Pm>@>''>G'          ",
"              x4:@@/mm'T>=Y#~*~~YY#*>##*O>>/=@_       P==>m''=''          ",
"             ]@{y:>>O~~##YYYYYYYYYYYYY###~#~..Y>5     'TTm<m5@}           ",
"             4>v4m#>mO~#~#YYYYYY#Y##Y####>>>*T>##>m'y'mm>Y>5{@/           ",
"            vTm{v>@<~>>~~~~~~~~~~#########~Y~##==#=>.=>'>=>'@@v           ",
"           ,mm'y5=Y<>~#}~~~*~Y~Y#Y}~~~~~####.=#>*''{T>>''T>@@US           ",
"           /v5v5:=#>Y>Y~#~~~~~~~}#>#**}~~>}>#*Q#}>~>&'<m>=@/U_            ",
"         !{=W&5'm>>#D####~###Y####}#T>*}#~~}~}#YYY##~>mT=='               ",
"         @@@]5m}>T>.###Y#####@#Q###########~...Y#>**>#<<O/                ",
"         ==@5T.=~'Q.=##=#YYM=Y=#=#=#Y#M####YY#Y##Y#Y)~>GA                 ",
"        W.=T5':>T~**#YY.Y..YYYYYYMY##=..YD=..Y#Q>D>T==O']                 ",
"        L.Y}''mT~<#*#~#~~~~m##>>>>>>*Q##}Q>Q#Y..#=@@a{S                   ",
"        y.Y>'''*'>}~..Y=Y######>>~}>}}>=Y=#~*#==:AP                       ",
"        5=#}'*''*m>>##>>>>T$#@>}>>>T>DY>Y.7|OQ#'                          ",
"        :##>~:':*>>>TTTT>@==@@%[TTmmm9mT~Zts'HOo                          ",
"        '@>#>**;mTTm4'v'T@=.@@@@@@}>m>>>~>2~>>%'                          ",
"        *#Q=~***>}'m      x1{{{v54yp:>..Y9bF>@NE                          ",
"       SO@}=#~*m><{'                Wo>#2kggkr[q]                         ",
"       m.***YY*~G>z@                 MaN== 6~~}H(                         ",
"       :.~#~Y~*Y'=4_                 [Ull   FHV|L                         ",
"     P,T.MY~Y~3Ymm                   %E%[   &'<|I                         ",
"     v{>.#Y~~~*HA]                   @T8@   LDHI                          ",
"    A>>==<#~##''                      zD@@  Ramy                          ",
"    _=@=.) *V.Gy                      aDXq  R|Z1                          ",
"    :=>=QW 5Y}4]                      +$8U  i;go                          ",
"    m=M=~P PN8,                       LlQw   <MG                          ",
"    Y>.{   XZ0                         MD&   ;r'                          ",
"    >=.4  ]%M]                         ZH0   1D:,                         ",
"    *@#  x/@N                          gMI   RZof                         ",
"    'Tm   5/@                          Jg1   pmeG                         ",
"    G)'   ,T/                          JJ=   0JQ8                         ",
"    b'>    /e                          l=r    JJ                          ",
"    Qmt    zm                          MH;    r<n                         ",
"    H%Z    @:f                          My    0l0                         ",
"    kO*    '%0                         4QL    (g0                         ",
"    t7H,   w<0                         :l1    f-I                         ",
"    k:I    LXd                         <Mh     Me,                        ",
"    ;[5    R7L                         [-f     Ze,                        ",
"    &eR    1bI                         I&      I1                         ",
"     Hc    k>,                                                            ",
"                                                                          ",
"                                                                          ",
"                                                                          "};
