/* XPM */
static char * camelt0_xpm[] = {
"74 59 91 1",
" 	c None",
".	c #2A1202",
"+	c #66462E",
"@	c #651E02",
"#	c #2A1E06",
"$	c #421A06",
"%	c #5E2E11",
"&	c #A67242",
"*	c #3E3216",
"=	c #5E3619",
"-	c #A8663C",
";	c #4B1C08",
">	c #8A5E40",
",	c #593215",
"'	c #783816",
")	c #804626",
"!	c #361602",
"~	c #462206",
"{	c #613A1D",
"]	c #825A42",
"^	c #5A220E",
"/	c #2E1A06",
"(	c #663E22",
"_	c #503417",
":	c #2E1E06",
"<	c #79320E",
"[	c #3F260B",
"}	c #54250C",
"|	c #82522F",
"1	c #5E2A0E",
"2	c #8E4923",
"3	c #823A16",
"4	c #5A3E23",
"5	c #6C3E22",
"6	c #6B3111",
"7	c #31240A",
"8	c #4A3318",
"9	c #B37E4C",
"0	c #4E3D21",
"a	c #5A260E",
"b	c #765636",
"c	c #532A0E",
"d	c #4E2206",
"e	c #402E12",
"f	c #461202",
"g	c #6A4224",
"h	c #724729",
"i	c #683A1E",
"j	c #632E11",
"k	c #5A2A13",
"l	c #6B3619",
"m	c #38220A",
"n	c #94613C",
"o	c #724123",
"p	c #865632",
"q	c #461604",
"r	c #653215",
"s	c #4E2A0E",
"t	c #6A2A0E",
"u	c #7E4E2C",
"v	c #7A4E2E",
"w	c #531D07",
"x	c #563A1E",
"y	c #3A260A",
"z	c #433216",
"A	c #542E12",
"B	c #8A5A36",
"C	c #9E6D3E",
"D	c #774625",
"E	c #9E5E36",
"F	c #864925",
"G	c #341A06",
"H	c #8E522E",
"I	c #41220B",
"J	c #462911",
"K	c #4E2E12",
"L	c #A27656",
"M	c #412A13",
"N	c #381E08",
"O	c #7E3E1A",
"P	c #59361A",
"Q	c #915936",
"R	c #804A28",
"S	c #88421C",
"T	c #784A2C",
"U	c #6E4226",
"V	c #3A1A06",
"W	c #5A2E14",
"X	c #63361B",
"Y	c #4B1605",
"Z	c #5E3216",
"                                                                          ",
"                                                                          ",
"                                                                          ",
"                                                                          ",
"                                                                          ",
"                                                                          ",
"                                     9                                    ",
"                                   ffru                                   ",
"                                  UfYw;                                   ",
"                                  kq^ffY                                  ",
"                                 ;f^$:ff                                  ",
"                                 fffqy5};                                 ",
"                                kffifMf5W                                 ",
"                               UYffffe*}GI                                ",
"                               *7NffgM*Z#f                                ",
"                              J**VrffrM{mI                                ",
"                             i^J,gffffrkIV                                ",
"                             KNJ(ggfffgI7!P                               ",
"                            08mWjUUfffU0yy[s                              ",
"                            ms;}c**#ff0*qGsj                              ",
"                            KW(MJ**#UU#.gM@UU                             ",
"                            @=z6Xss*fUyy*%5Us                             ",
"                           sgxyrryy**@y*yr%5j                             ",
"                           @kI0Z,##**<*.0Ws~{                             ",
"                           fg7ycsyyy**y#ys=7b                             ",
"                           f{!s%jyyyyyy.s1Zs                              ",
"                           yx[@UUfffy^yy@UUU                              ",
"                           @8sUU#####yyyU5ss                              ",
"                           MJw%Uyyyys#ya%5kc                              ",
"                           fffrJ#yyysss^y@oE                              ",
"                            ffXssssyJssfgc;r                              ",
"                            ;I{sjjj@^Jj.1wY                               ",
"                           d8A8sSO'@@@r%5r1                               ",
"                           }8A,Ackjl2@s}KAj                               ",
"                           AM6jr''   2>AAAr'                              ",
"                           zJ6jj6<    5(a_33<                             ",
"                           e_ljr)Q    g5_#'FH                             ",
"                          JMzKWAz     5i8er{x                             ",
"                          _Meeze*     5X5JKzz                             ",
"                          xmN[yyy     5i}yeeM                             ",
"                          +IGM...     5i5,y:/                             ",
"                          hcsTsss     iXcx8VIs                            ",
"                          oXjBaaa     55UT]}}a                            ",
"                          (UT u||      UgULiUT                            ",
"                         DAss sss       UU D(,s                           ",
"                         5=,A-sss       55U ssc                           ",
"                         =={  UUU       ir5-P(U                           ",
"                         ==,  sss       5iU X,s                           ",
"                         {i(  UUU       s5U  {U(                          ",
"                         hgX  sss       9ss  =cZ                          ",
"                        ihT|  nnn       n99  TBQ                          ",
"                        5i{   csc       uQQ  hPKX                         ",
"                        ))F  sRRR       U||  AoRR                         ",
"                        D)R   F2F       tUU  s22F                         ",
"                       uTh    hUU       stt   DUUU                        ",
"                       n>p    UUU       Css    UvB                        ",
"                              &&&        CC    CC&                        ",
"                                                                          ",
"                                                                          "};
