/* XPM */
static char * cameltl_xpm[] = {
"74 59 91 1",
" 	c None",
".	c #2A1202",
"+	c #723412",
"@	c #461202",
"#	c #4E3E22",
"$	c #8E6646",
"%	c #42220A",
"&	c #52220E",
"*	c #724627",
"=	c #2A1E06",
"-	c #524126",
";	c #542E12",
">	c #3E3216",
",	c #9A522A",
"'	c #661E02",
")	c #855B3B",
"!	c #5D2E12",
"~	c #301E06",
"{	c #5A3A1E",
"]	c #593F23",
"^	c #926A52",
"/	c #8C441E",
"(	c #62523E",
"_	c #5C3216",
":	c #76523A",
"<	c #42361A",
"[	c #5E4022",
"}	c #642207",
"|	c #623216",
"1	c #B37E4C",
"2	c #4D220A",
"3	c #461E06",
"4	c #8A320A",
"5	c #6B3E21",
"6	c #96623A",
"7	c #B66E3C",
"8	c #86421E",
"9	c #8E4A26",
"0	c #6D462A",
"a	c #525438",
"b	c #53290E",
"c	c #7A3E1C",
"d	c #533A1E",
"e	c #4C260B",
"f	c #622E11",
"g	c #6B3A1D",
"h	c #601E02",
"i	c #6E4226",
"j	c #835532",
"k	c #6E3415",
"l	c #423216",
"m	c #A16D42",
"n	c #5E2810",
"o	c #774625",
"p	c #925A36",
"q	c #35260B",
"r	c #905632",
"s	c #652A0E",
"t	c #553317",
"u	c #A77343",
"v	c #643619",
"w	c #4C2E14",
"x	c #4A1A08",
"y	c #7B3A1B",
"z	c #5A280E",
"A	c #9A623E",
"B	c #7A4B2C",
"C	c #5D361A",
"D	c #3A260A",
"E	c #916138",
"F	c #724E34",
"G	c #4E2A0E",
"H	c #A27656",
"I	c #6A2E10",
"J	c #7A320E",
"K	c #624626",
"L	c #633A1D",
"M	c #6A361A",
"N	c #452A11",
"O	c #653E22",
"P	c #6E4A3A",
"Q	c #663216",
"R	c #491603",
"S	c #4D3719",
"T	c #4F1E08",
"U	c #A35126",
"V	c #A66139",
"W	c #8E3A0E",
"X	c #5B220D",
"Y	c #824626",
"Z	c #864A26",
"                                                                          ",
"                                                                          ",
"                                                                          ",
"                                                                          ",
"                                                                          ",
"                                                                          ",
"                                                                          ",
"                      1B                 $                                ",
"                   jU/Q5YvJv           mRG4W                              ",
"                   igJQCkfsvk          9G:8!                              ",
"                   if'bf}wGf}        UkQ.:IXe!                            ",
"                   r}Qa#ea#S!       iQDDGD-dsff                           ",
"                    8vi#.5#.J      @@G@DD=>]!fff                          ",
"                     G##D##qQ      GbGDNX.>#;!ff                          ",
"                     QGSlGS>[    ^i}iff(#ND#d;ff                          ",
"                     iN#fe#+f5Z  @Gf(Q##(>qlw~!|                          ",
"                     mQGO!GgQvJQQDJ:iDD##ql>l~b5f                         ",
"                      iGiGb5G|'o@'GG.D==q>=qNDD>fD                        ",
"                      i@iv@iQxG,@JG#D#=l>>=NO|G>|h                        ",
"                       'Q_fg_!i~.>>D=======D>!Gt>3F                       ",
"                       ':GGQbGwG#GGDDD=====>>QqtN%v                       ",
"                       'iGGG.R@D>=DDDDD>>>>>G>'v~Gf                       ",
"                       4'Giw!i#D.DD>>>==>>>>DG~F_GbG                      ",
"                       UJhGQj>NXDGG>#DD>>>>D==D50ztn                      ",
"                         i@Q>D=D>N>NGDDDDDDDDzGQ5[!!Q                     ",
"                         G!_G#D..lDDDDqXDDDDDDGGN[!f|                     ",
"                          $G(DD===DDDDDD@@=DD@X>@!snf                     ",
"                          Vf@GGD..z.@Dx===.==D#!G5f!f                     ",
"                           7J'D.DXXqXGGGGD>>DDD>fgfff                     ",
"                             HLTd>@@NG>GDDD==.Gi#5!ff                     ",
"                               !bG.bzfGNGDfGGNG#idzfff                    ",
"                              ssM(ff#Qf'Xh@bffb#OO;fff                    ",
"                              XXe>GGGG'h''Tff!GQ0_en!f                    ",
"                              ;bGd#.%bB/8ccffbGG#}@NXe                    ",
"                             A;L5FPtD*f    !ffcGQG2h2}V                   ",
"                             jG<> ggR@        JiVG5#[tQ                   ",
"                             *S-# 55i'        ri$Gl><Si                   ",
"                             5iE$ iii}         QrN#3wbvr                  ",
"                            A*tG  iii'         )gv$D{tGQ                  ",
"                            EB5i  iih4         fQ;b tbze                  ",
"                            j0O;  iii4         fILi  _5_T                 ",
"                            Biii  i5sy          fL0  5:5!                 ",
"                            iiii  5Q57          MgH   )Bg                 ",
"                           OLL5i  ffg0          g5M   kQM2                ",
"                           CLiC    !bG          |5i   cQg!                ",
"                          i_)u     M5G         5tG'   Cr;_                ",
"                          i;FE     bGG         iGuG   GGGG                ",
"                          tvb;     0iG         iG1Q   Qbt;                ",
"                          Ei_t     iiG         iGGG   L_CCC               ",
"                          Eiii     GGG         GiGk    __!f               ",
"                          *Cv      jjG         15i'     !|v               ",
"                         *LGG      iim         piGG     5{C               ",
"                         IbG       bbi         jeBy     b;tO              ",
"                         b;G       muL         ib9p     CL_5              ",
"                         Ej        11h         sGii     _LCL              ",
"                                    BF         G ii                       ",
"                                               m uL                       ",
"                                                                          ",
"                                                                          "};
