/* XPM */
static char * desert2_xpm[] = {
"309 49 72 1",
" 	c None",
".	c #FEB971",
"+	c #FDB165",
"@	c #FEC375",
"#	c #FECC89",
"$	c #FED088",
"%	c #FED68B",
"&	c #FEB273",
"*	c #FEBA80",
"=	c #FD9962",
"-	c #FCA05E",
";	c #F18D59",
">	c #FEAA6B",
",	c #FDB282",
"'	c #FEC386",
")	c #FCA95E",
"!	c #F6995A",
"~	c #FECBA0",
"{	c #F7A96B",
"]	c #EAA36B",
"^	c #CF9364",
"/	c #BD6B3E",
"(	c #A77855",
"_	c #E9BCB8",
":	c #6C4124",
"<	c #FEDEA6",
"[	c #3C3016",
"}	c #A97A57",
"|	c #3D3116",
"1	c #88573A",
"2	c #4D3F23",
"3	c #663316",
"4	c #AB633A",
"5	c #E79863",
"6	c #4E2A11",
"7	c #AC7149",
"8	c #D0A478",
"9	c #C3BDC3",
"0	c #CE8857",
"a	c #CEC5CD",
"b	c #E88C4D",
"c	c #CF7A49",
"d	c #B95E31",
"e	c #AC5227",
"f	c #DC7B47",
"g	c #D08251",
"h	c #E8935D",
"i	c #CE6C3C",
"j	c #8C330C",
"k	c #671F08",
"l	c #7D340F",
"m	c #F3A068",
"n	c #FCA168",
"o	c #E78550",
"p	c #F1935C",
"q	c #FDA373",
"r	c #F0995F",
"s	c #FDAA78",
"t	c #F79A65",
"u	c #E7A784",
"v	c #DE8451",
"w	c #DD8C5A",
"x	c #E78C5A",
"y	c #C0794B",
"z	c #985732",
"A	c #91451F",
"B	c #704326",
"C	c #471307",
"D	c #F09A6A",
"E	c #DDAFA8",
"F	c #FEBC9D",
"G	c #EE834E",
"                                                                                           &.&&.*'***''                                                                                                                                                                                                              ",
"                                                                                     *.*.&#@@@@@@**+{+&.&>&+>&..&>{>&...++                                                                                                                                                                                           ",
"                                                                                  @**@@@@.*****&&...++.&&+&>{)>+>))+>)+>+.--m-)>+)>>)qqq                                                                                                                                                                             ",
"                                                                             **@*@@..@''@@..*..&>{*@.&++{+&)m--nn->)-=--)+!bob--!p>nn-!!!pq>qnnn>                                                                                                                                                                    ",
"                                                                         &@@@@@*@*@*.*@'@*&&..&&{{..*.{m{+.+)m-{))>)----)+-!p!--=b>)n=-==-=--===ns--n>&>                                                                                                                                                             ",
"                                                                     .@@..@*@*@.@.@*....&+.&&.&&){...&)m)>.&+)-n)>))--)-))----=!!p)nn==--)==pppp-n===nsqn===s>                                                                                                                                                       ",
"                                                                  @..@.*@&@@*@.*..'@.&&&>{*.&&&&+&++&+)>)+>>>n--n>>)+>)))--))-!pp!--!!=-n)p!=!p!=nmtt==q=txp=qq=po=!!tn-rr                                                                                                                                           ",
"                                                                 .@..*@@*.*@....&&@*...*+>&&+>>&&*+>))>+&+n)>)n-n).+))))++--------))-m!-)+!---!r!-nDppDpppxxptpD;x!;;prtphh]]]5^                                                                                                                                     ",
"                                                               .+..*..*@@.@*.*.&.&**&**@&.&>qnn>&*))m{&.&&->+&)n>>.+)]r-).)]5r+.+r.+)m])+.r]{)]r]5qDDhpDhx;hphpxh;pp==--hhb]{)^^]@^88.EE.98                                                                                                                          ",
"                                                             .+..@@@@@....@...++++#@&+s&&&&&++&&&&)n=-)>>)=q>n-!->&&>-m!-.-!!!)))-!----m-)-)))-r--&sDwfv5swwxw5hhhsmrx5m{+bm))m!r]bmr5h5{.5]]-)){                                                                                                                    ",
"                                                            ..@@@@@@@@@@@@.@....+&&&&&..&+&&+&>>+&)--n>+>n=)++-=-n&s>)tn>+-)))n---+))--!)+---!---m{qum]5D]DDDmDDmDsmr5pr>+b5rmrrhrwwhw0w5{5r5]]]]mrm])m]rr.+++))                                                                                                     ",
"                                                         +@@@@##$$@@@@@@.@....+.++>)&&**&>.&&&&>>&>)-nn>>)!n&&>--->&s>)q>>n&*&nttn.+)m!-).+-r!-)-rm{s,,,Dxs{{{s{{n{qrrrtnsp5!rr-rrh55hwww]r]rhhhhwmr555hr5){m>ss&,,**,,,{*]*,]5]]h                                                                                   ",
"                                                       +.+###$#%$%@@@@@@@@.....+++&&>...&>*.&+&++>)>))>>>)->>+)nnn>ssss>>s>&,&>-nn&++-m-))))-!-n)qsqss,smx,sss{{m{qm-rDmn))-r!m)-rm{)m5b5r]rr5hwvwmrbbbh5rcfvvwxxh00w^^5550w]]],*Fmqmtmnq                                                                            ",
"                                                    &&&.@.$%$%$%%%@@@@.@.@......+)'*&&&&.+*.&&&s&&n)&+>)>n&+>))n)+q>>sss>>sqnqs&>n->++)---->+>m!)>&-r!nsqmssqqnqn-qnn-t-mn>t!!---!m{+{mrrrmmr5hbwvmDxwvb5mhhxxxwxwhw5r]]{u{{{{5ww5tttppptp=pppppp!                                                                   ",
"                                                  +&&&*@@#%$$$##@#@@@@@.@.......+{#@&&&&&&*.&&+&+&)>+&+>))*&>n->+&>s>s&,ss>-tq&,sq!ns&>n!r!+.&!pn&>qrxr!>s-----m-tqnnnnnn=-!ppp!t-xr-mhbbhnm!rrh;xmDDp55rrDDD5hxwwb^h55]mm,]]{mwwDt=ptppptptp;;;p;r!p!!!!                                                            ",
"                                                =-**.@@##@%##@@@@@.@..@......@..+)@*&+.&&>&.&&&&&.{+&&+))>.&+)>++&&s>>&&&sqq>ss&s&t)&&+>n)=>&.>-n>qn)--n>&-mn-q-qn--nq-=-=n=!ppp=)xDqqmrpDnqmtmtDtmm]mqmD555hhhxowfg0vvwwwDv0msmm*t==========tp=ptDmmrmrr]rrr5555r==q>nn!                                            ",
"                                             @;=>,@'@@@@@####@@*&.........+.@...+{>>>&*.&>*&&&&&.*->.*>{{)&++&.&>)sqnqs,,sq&*,&q&*q>>&>>>>-)&&&>)-->&,&&+*--nq))>>---nq-=!n)-!;pn,;q,,sqssqqqqqqqqDmsssqDDmmmmmmmq5rDDmmmm,xv{{wvDp=;;=p====p;;;;;r555555b]5]5rr5bvG;p=;ooh-&&.-                                     ",
"                                          @@)&*@@@+..@#$#@%$$@#@@@#@@.@@@$........#@&&&*@.+s{&**&{..&.&++++.@&n{+@**.&&>+>-q>s.s>>n>s&>>&,s>qqnq{)&&+)-n)>>>++&+>->+++)>)+-))))))&rm{{{{m]]{{m]r]>rDmm{mrrs>sss{mm{m{mm]m{mmm{m{mqqmqDqqssxpDtttrh{]rhhwhwr{)]ww]+)-pobh-+vohp!r!p5m))mm                             ",
"                                       .+#&+....*...@@@##@$$##@@.@@@@@.@@@.......&'*&+.*.,+&+&.*.&&+.+&&&&+&..+{>...,&>&>&>&>&>&&.{s,ssss&qs>>{>qn&+>)mn>+)>>)n){)+>+)+++)-----=n)m{{++{{{{>++m]{{mm{){{mr){>+>{nr{{]Dmm{{]{{m{]{mmqtDDmqshDtmmrrh{r]555555])]bhm{)-bhbhm)bhh!rrrrhr))m5mm.+{m                       ",
"                                    &&.@.$%@@##@@@@.@@@$$@$@$@@@@@@@@@@@@@........@.&&&..&.&&&.*...+&&++&*+&&.&+++*.++{>>>&&>>>&.*>s&s>s&,>>ssqs>>>&+>)->&.+>{-)>+++++>>+>-)-----))+>+&>))+&&.+){-{-)>)>)n)>>{)nmr{-mDmmm{mmmmqmmmmDmttmssDttqqmrr]]mr])]]b]])]5]mm-5h!r!-h!rrrhbhhr]mmh5!m{mrm){r                   ",
"                                  &&&*@@#%$@$#$$#@.@@@@@$$@$@@#@@@@.@@@@...@..@.....&+&&&&*..&&..*&&+++&*@++&&@*+{._.&+>>>&>+>++&.&&,&&&,&ss>>>>ss++>>){+&&&+>+>&&++++++++-)++)))+&&&>+&+&m>+&>{)m+>>>>>>+mn)>){-rnm]mrmn{nm{mm{m{DtDDDmmqrDqmm--r-r]r]])+b5mmmr5hmrrmrr]mrrrhhhbb55{)5h5]h55wh55w>!pr->-            ",
"                               =-**.@@##@%##$$$$$#@@@@@@$$@$@@@@@@@@@@.@@..@...@...&..&&&.*..&&&*@.&+>&..@)+&.*.+{@..+&&+&)>&&&&+>,&&s,s&s&sss>>>>>&&>))+.>+&&&+>>++++++++->++)n))&&&>>>&&r!->))n!&>>q)>>&-nqqn--!{-!mrm-nmmnnmn-nmrrrttqqrD-nmtrr]m!m-m-{5r]-{mrb5rr5]rr5]mrhhb5bw5]]5hh]gb5wwhwvmhbxrrrx-mmtmtmm)) ",
"                             ;=>,@'@@@@@##.@@@#@@@@@@@$@$$$@$@@@@@@@@.@...@..@....&**.&+.&..*.+&&...&+&&.*m+....+{@@@..+&&-n>++&{{.ss&s&s>,&&&sss>+++>)>&.-q+++)-m++++>+>+-))>-n--*&>>q>>+p!r-qnn!&>nq-q>s--n)nn!!-!-!r!m------m-nrrpprrm{xrrm!rrh-m!rrmmm!rpr-m!5h55rh5hhm55hwh5]05r]5wh50h55wh5w5vgwh5hvhhhhh5xbmmm",
"                           )&*@@@+..@#$#@%+...@..+#@@@@$$$@$@@@@..@@@.....@@.@.@.@..**&&..&&*.&+&&.....&..m+.@++++@.@+.+++)+>+&+++.ss>&&sn,&,&&s&s>+&>>>&*>>>>>>))>>++)+)+=)>+)--=*&nn=n>>>n--)>-!+>-===>>-n-nn-!!--!!!!----------rrrhrrt)xxp5rhbbmm!5phpb>rxxtnD555hh5hh5]5hww5r)0h5]h^^r055^ww5w5wvw55h0hhwhh5wh5hh",
"                         &+....*...@@@##@@++..++))@$@@@@$$$$$@@...$@@++.....@.@.@*&*#@*&&*{.**&{{>..*...&+m+@*+>+@.@..+++++++)++.*,>qss,>-,s&,s&s&>++>))+.@.&++&&.++)>)))))).&+)--.>)!!=n>*&>q>)q=>-=pp=q>=-nn-==p-!!!!!!-m-------ppxppt-nvbbppbbvnt!p;xxxstxoDm-!ww5whhww55www5]+0555wbb50w50g05w]555]]5h^h^h^5wwwww",
"                       -+@@@##@@@@.@@@$#@@@@@...@@@@@@@@$$@@@@@$@@@@@@@@@@+....+++.+{)+*.&@@&+..@*{&..&+.@&&>->@&m-{++.&>{*@*+&@.+{+..)n>&@>n)>&&&ns&,**&-*'*&s.*,m>&&&&>n.s>-tn>,&>)>&&+>-q>>-t->>n)>+&)->>+n!r-+--m!--)n)-m--mmt{{m5hhhhmm5hrmrr]5hwxh5mwx]Dmm55m5wwwwr{bbhwwbb5^88{.88^58^^00^00yyyc0^500gyc0^wgyc",
"                    ))+..#@$#$$#@.@@@#@@#@@@..++..@@@$@$@$@@@@@$@@@@@@@@@@..@.@..+@.+{&&&+*&++&.....*&++&'>&+-&..m){&&&++-*.&>+.&>n+.&>>+&.&>n+&+&{>s&*,s{,**&s&*.n>s,,ssq,&snmn>&s>q>+&>>n>>>---n))n>++)-->>>)--)m---m--)nn-m----{mD55h55m5h55rD]D5hhwhDmw5p]Dr5hrh5hh]5]]5bwww5rg0^^85^05^^^^^^^^w0gg00w00ggyg0^y00",
"                  !!-)+...%$$$$$#@@#@#@@@#@@+++)...@@@@$@$@@@@@@@@@@@@+@.@..@....+@.&+++&+&+{+&.&+@*.+{&&'&ssn>.&-{)+&&>{{&.&)>.&{)>..+)+&&+)>+++&{&&&&&s&&'*&s&**s&&&&s&>s&ss>ns&>>)>>&>>n>)>n-)>))))>>)n!)+&+>-!-->)-r->))n!!tn-{mm55r5mmrh5r]rrmr55h5rmx55rrr5r5rrm!mrrmrbwbbr{^0^w^5^^^bb^b^wwh^0gyccc0gggygg0gg0",
"                )+!-)+....@#'#~#$##@#@###@.....+++++@@@$@@@@@@@@@@@@@@@.@..@..@...@...+.&++++&...&*@*&&+.*+&>>&&+>>+++>++>&&&{s..>{&&&>>>+&&+>>&&+{s,&ss&*,**s{&,&&s&s&&s&>s&&s>q>&>>>>>>>)>>q)nnq>>>>>>>)-n>++)--!>+>-!->>nn-mnn{n{trrrDrmrhh5rrrrrrrrrrr5hr5r5rrh5r5rrrr5hbwwbhr5bv^w555^^^5^b^^wbw0g00gccyycycyycc",
"              --)..@@@###'''*'@''#@#@@@@@#+..@@.+{.@@$@$@@@@@@@@@@@@@@@.@...@......&&.&...&&..*.....***.&>&+>&&&>+&&&&&&&&..&>&**>>&&&++>+>&+>>>+&>>&&s>&&&**ss&,,&s&s,&s,>s&ss>>>>>>&>>>>>n)>>>>n)>)>>)>>>>>)>)))!q>>n-n>>)n-m-->-mnmt-n{nrrp!mmmrr!mtm!!-rrprr!-rbbbbbrmbbbbbbbbw^gg0bwbgvwb^bwv00bwhh55yiyiyi/i/yc",
"           )))++.@@@@###'@###''@.@@@#@@@@@+@@@@@+]@@@@$@@@@@@@@@@@..@@@@+...+....*+....&..@.&.*@.&&&*@'*&{.>>&&>>s*&&&&+.*&&&>+.*++>&&&>&++>&&+>>+,&>s&*&s&**>n&.&s&,&&s&>s&&,>s>s>>&>>>>>>>-q>>>>>>+>))>+.+n-->>>-n>>>>)q)nnnnnm->n-tm-)>)-!!m---!t--n-mrn-!!pr--!rbovbh-obr!-rbbrbbrr]5r0b^bb5hhwh5]]]m]b5h]55hwhhh",
"          -++@@@@#@#@*.*@'##'@***@@@@@@@@@.@@....+@@@@@@@@@@@@..@@@.@@@@@+..+++...+.*..+..@.&+&..&...*@@*+&{>&&)>&*&+>>&&.+&+{>*.>+>++&+>>>+&&+>>+&s{&**,m,**&qs,,q>s,,ssqss&&ss>&q>&>>q>>>>nn>+>)>>&>q)>+&+n-n)>>)-n>&,+nn)>>>n-t>-n--nq>>--!-qnn!tn)q-=!>)t!!!-)!!pb!!!-!-)-))-!))++++)-b!rr-]))r])+){{{{++...+{.&{",
"        )+-+.@@#%%##'#'#~#**&,*@'@@@@@@@.@@@..+++.$$@@@@@$+@@@@+@@.@@@@@....+++..@&@@@&+++#.+{)+++@&+..'@*&>>&&n>..&>{{>&*>+>m>..>++>>&>+>)>.&>>>&,mm>F#sr&**s{&*&mq&&,&qm&,,sqqs&>s&+q)>&>n-)&&s>>++>nn+.&>)->>>)n!r>.'&---)+>>-rn---nn>&>q--n)))r-n>)-mr&)-!!!-)!!!--!-!+)++)+)+r!)+.+)r)))-)++.+&.&.)]55r{)+{{m*&&",
"      +).+@@@@.@.@#@..@#@.@#@#@#@@@@@@@#@#@@@+.@@@$%$%$$@@@@@@@@@@+@@@..@$.++@@.+.#@@.++..+.@@&>+>%'&&.*&+>..>n>&&>+&&++>&+*@.>{+&*.&&@@*+&....@*{+>+&&&+)+>>>>)>).>n)n++&)++))+&>)nn)n>>)+>>)q>)>+>+++>>+)>&.&&>>>>>s>q>ssss>>qs>)>nn))nn>)n>)>q))>>>>>>>>>>)++))+++++++++++++++)+++.++++)++++++++)>>>+)+++>>>>)++s+",
"    ^+.@..@@@@#@@@#@*@@@@@#@@@@@#@@@@@@@#@@@@@@@@@$@$$@@@@@@@@@@$@+.....@@@++@'.&&@@......+...+++&'&+&&**&{&&>)&&>+&&.>>&.>&&.&+&.+....&.&+..+.@.{++++&++>+&+&+++>>)))>>n->>>nq&&+n)>)>>)>>>>))>>>&+>+>++&>+++&+++ss>qs>sq&&sss>s>n)>>>)>)>>>>>>>>)>>>+)>)>)>>))>>++&+&++&.&&+>))++++)++++))+)++++>>&>+>+>+>>>)>>>n>>",
"   /^+@@$@@@$#$$##@@@@@*@@@#@#@@@@@@@@#@@@@@@@@$$$@@$@@@@@@@@@@@@@+..+++.@.++.@&.+@@++@@..+...++&+*{{+.@*@n&.s>&&>&.&.+++.++>+.*.*{.@*&{+@{.&)&..{>&.+>)&&&&++>>+>>>&..&)!>++)n+&+=n>++>)n+)>>)>>>+&&&&&+&>>>&+&&&>s>s>s>>,&&&,&&&)+&+&+>+&+&++&&+>++>+>+>+>+>>>>>+>>>>>>>&>>>)>>+++)))-)+-))++)))>>>>>>>>>>n>>>>>--q",
"  (^_@@$@$@$@$$$$#.@#@..@#@@@@@#@@@#@@@@@@@@@@$@@$@@@@@@@.@@@@.@@@+++++....&>&..++@.{+.@@.+++..+++.&+{&.@*m&*+>&&)+&...&&.&>>+*@@.)&..&+&&+++{+.+{>>&&-->*))>>>))n>>+&.&)!>&>n)++>m)>&&>)n>>)>>>+>&++&+>&+)>++&++&>s&>ss&s*,,&&,,&{+&..&+{...&..&.&+>+>+++{+{+++++>>>+>>>>>+>>>))-++))!)))]-)))))->>>q>>>>nnn---q>-=-",
" :^.<<@@@%@@@$@###@@@@@.@%@@@@@@@#@#@@@@@@@@$$@@@.@@@@@.@+++++++++..+.++..&.+>+..+.+++..@.+++&.+.+@...&**@m+*&>&s>&..&.&....+&...+.++&...)>&+m).+))&&>-->.qnn)qn)->nnn)q)-)++qn&&>!)>&&>>)+>>>+)+>+>+>+>>++>>>+&+&&s&&sss>&&,ss>s&{.&&..+)&&.&&.&+.&&+++..+++>++++>>))>>>>->+++>)-++))-))+-))))---)q)qqnq>)n-n-q-qnnq",
"[[}@<<@)@$@@@@@@@@@@@@@@@#@#@#@#@@@@#@@@@@$@$@@@.+@.@@@@.@.+.+++++.++>&.&++++)>&&)++++&++.++++..&+''*..&.*n&&>>+&>&&..+&+&@&+&&&>n.>->&.+n++>)>&&))>>>n->+>+>)>>>).&>)>++&q&>))+&+n)>&&+>n&+++>>>&>+>+>++>&&++>>&+&,&s&&&,ss>s>s>>+++++++&++++++++&&+>>+&&>>>+>>>>))n)))n)-n>++)-!++)-))++)---)-)-q)q)>))qnqn=--nnq)>",
"||1^$$@++@.@@@@@@_@@@@@$##@#@#@#@#@@@$@@$@@@@@@@@+@@.@.@......+.++.)))+&+>>&+n)&&)-)&&))>.>))+..+)@*..&&.@)..>q+&++&.+++&&&.&++{+>&+&+&+&>+&>))&&>n>>>)>>)>>>>)>q).+)>>&**n+>)q&++n>>>+++>&>>>+&>+>&>&>&+>.&&>>>>>&,&,&,&&&&&s>ss>&+>>>>+&)n))q)>)+>>q->>+)nq)>)nnn-n--n--)nn-)----)))))))+))---))nq-nnnqn)nq-nnn)n)>",
"22345.+.++...@@@.@@@.@@$@@@@@@@@@@@$@$@$$$@@@@@@@@.@@@@.@@@@.@...++)--n>q->&>-n&&n=>.&)=)&++)>...{..&&+&.*s&&nn>&&)++&>)+&)+.+){)+->&&>n>&&&+->.&>)nn>>>q-)nnn----!!pr---->++n)+&>>)>+>>>>>++>>>+&&+&+&&&&.&++>>>>,,,,,,,,sss&ssss&>>-=>&&=n=--n-=>q====qq======---)---)--+)-=!=)+!=--))))++----n)nqqnnqnqqnqnnq>s){>",
" 6378@#@@@$@@@9@@$$@+8+@@%@@@@%%%$@$@%%$$@%$$$$@@.]++.+)+.)++))-)).@@@...@..++{+.@)+.++))++..+++.+..&&+>{{>>++,&&,&,&&&&&+s&&&&&&.@@@@..++@.+{m)+.r+@.++>n++.+>>&.;bbp)+.&>&**.+&&.&>&.****&&&..>mm)..)m)+&){{{){)...++)+.))+..+)m+)++))++++)++++-+++++.+++++++)))+..+++++@+rh)+)-))----)+))-==-)++)--)))--)-)))-m-->",
"     08@%<$$$$$a@.%$@@++@@$$$$@@@@$$$%$$$@%%%%$$%<@@@@@@@@@##@@@#%>&&++{>&@@##@@##--))))+)+)))++++))+&&.@*%$$####~*.****'''****''@$#@@@...+..@#@+)>**n;bbffvovciiicciicvffbbbbfvbb)mrpDn)>'***''##@@@@.@@@...++++++)))--))++...+))))))+)))+))+..)-))--)))-+.++++++))++))+..))-)++-)----)))--=!----++))++++++.+.)+)!nn",
"          %#%$%$@@$$@@$@@@@@@@.+.@%%%%$@@@@@@)])@<@@.@$%$#+..+&.'##$####'#hrm{>--!@@@@$#@@@$$$$$%%%$$$~'''uu]5858]cvvwwxxxhxwvvxx55]5ww000c0bm+)wcvoofffv                   dddd/      ccvxxxxhtq,*,>&&,**...&&&>)@.++))..))++++)))))))))-+>>>+++))))++++)++.+++)+)))+)++@+++++++)-==-=nnn---==--=.++)+.++++...+)>+>>",
"                    +@@$@@$%%$@@@%+++)+)))bbcdedf!fcgghhhh///d4dyfnnqn==-q&s&'%$.)bwwbwvv0ww0gg0gg^0gy44zzzABBlBl                                                                                     vhhhDDmm{mmr+>)mmm>.mn--n-m-nq)q>>-->)t!!n))))))))-!-)-))-----)))-)+))++)-)+-n)q>qnnqq>sssqs&+>>+>+>-nn>>>+>,&s",
"                                       iifidejjjjjkklklkllkklk                          AAABl3k6CC366666                                                                                                             i/cfx555h5555hpDtDD5hsmhwoxs,n-=--=;o---nnn---n-=!!==---p;p->sss,sssss,,*,,sssnm!t!rpvb;tqq>s&>D",
"                                                                                                                                                                                                                                     0wggcu50cc05sDtDttrxott=mnq=tqsqntrDtnn!px;q,sssmqmDDmDqqqqmmxwvcgccciccwx 5hr5h",
"                                                                                                                                                                                                                                                   fvxh5wvgvvvvwvvxxhwvvwwwovgfgxhgyyy//y                            ",
"                                                                                                                                                                                                                                                        cidd//////4d/dddd/d4d                                        "};
